<svg xmlns="http://www.w3.org/2000/svg" viewBox="0 0 720 200" width="720" height="200" role="img" aria-label="Internships posted per week, last 16 weeks"><title>Internships posted per week</title><g font-family="-apple-system,Segoe UI,Roboto,sans-serif" font-size="11"><line x1="38" y1="174.0" x2="706" y2="174.0" stroke="#30363d" stroke-width="1"/><text x="32" y="178.0" text-anchor="end" fill="#8b949e">0</text><line x1="38" y1="98.0" x2="706" y2="98.0" stroke="#30363d" stroke-width="1"/><text x="32" y="102.0" text-anchor="end" fill="#8b949e">39</text><line x1="38" y1="22.0" x2="706" y2="22.0" stroke="#30363d" stroke-width="1"/><text x="32" y="26.0" text-anchor="end" fill="#8b949e">78</text><path d="M38.0,174 L38.0,174.0 L82.5,174.0 L127.1,172.1 L171.6,174.0 L216.1,174.0 L260.7,174.0 L305.2,174.0 L349.7,172.1 L394.3,164.3 L438.8,164.3 L483.3,164.3 L527.9,148.7 L572.4,148.7 L616.9,64.9 L661.5,22.0 L706.0,29.8 L706.0,174 Z" fill="#2f81f7" fill-opacity="0.12"/><polyline points="38.0,174.0 82.5,174.0 127.1,172.1 171.6,174.0 216.1,174.0 260.7,174.0 305.2,174.0 349.7,172.1 394.3,164.3 438.8,164.3 483.3,164.3 527.9,148.7 572.4,148.7 616.9,64.9 661.5,22.0 706.0,29.8" fill="none" stroke="#2f81f7" stroke-width="2" stroke-linejoin="round" stroke-linecap="round"/><circle cx="661.5" cy="22.0" r="3.5" fill="#2f81f7"/><text x="661.5" y="13.0" text-anchor="middle" fill="#e6edf3" font-weight="600">78</text><circle cx="706.0" cy="29.8" r="3.5" fill="#2f81f7"/><text x="706.0" y="20.8" text-anchor="middle" fill="#e6edf3" font-weight="600">74</text><text x="38.0" y="192" text-anchor="middle" fill="#8b949e">May 18</text><text x="216.1" y="192" text-anchor="middle" fill="#8b949e">Jun 15</text><text x="394.3" y="192" text-anchor="middle" fill="#8b949e">Jul 13</text><text x="572.4" y="192" text-anchor="middle" fill="#8b949e">Aug 10</text><text x="706.0" y="192" text-anchor="middle" fill="#8b949e">Aug 31</text></g></svg>